<svg width="30" height="30" viewBox="0 0 30 30" fill="none" xmlns="http://www.w3.org/2000/svg">
<g clip-path="url(#clip0_9618_125)">
<path d="M7.5 26.875H22.5C23.6599 26.8736 24.7719 26.4122 25.592 25.592C26.4122 24.7719 26.8736 23.6599 26.875 22.5V10C26.8736 8.84011 26.4122 7.72813 25.592 6.90796C24.7719 6.08779 23.6599 5.6264 22.5 5.625H20.625V3.75C20.625 3.58424 20.5592 3.42527 20.4419 3.30806C20.3247 3.19085 20.1658 3.125 20 3.125C19.8342 3.125 19.6753 3.19085 19.5581 3.30806C19.4408 3.42527 19.375 3.58424 19.375 3.75V5.625H10.625V3.75C10.625 3.58424 10.5592 3.42527 10.4419 3.30806C10.3247 3.19085 10.1658 3.125 10 3.125C9.83424 3.125 9.67527 3.19085 9.55806 3.30806C9.44085 3.42527 9.375 3.58424 9.375 3.75V5.625H7.5C6.34011 5.6264 5.22812 6.08779 4.40796 6.90796C3.58779 7.72813 3.1264 8.84011 3.125 10V22.5C3.1264 23.6599 3.58779 24.7719 4.40796 25.592C5.22812 26.4122 6.34011 26.8736 7.5 26.875ZM4.375 10C4.37597 9.1715 4.70552 8.37721 5.29137 7.79137C5.87721 7.20552 6.6715 6.87597 7.5 6.875H9.375V8.75C9.375 8.91576 9.44085 9.07473 9.55806 9.19194C9.67527 9.30915 9.83424 9.375 10 9.375C10.1658 9.375 10.3247 9.30915 10.4419 9.19194C10.5592 9.07473 10.625 8.91576 10.625 8.75V6.875H19.375V8.75C19.375 8.91576 19.4408 9.07473 19.5581 9.19194C19.6753 9.30915 19.8342 9.375 20 9.375C20.1658 9.375 20.3247 9.30915 20.4419 9.19194C20.5592 9.07473 20.625 8.91576 20.625 8.75V6.875H22.5C23.3285 6.87587 24.1229 7.20539 24.7087 7.79125C25.2946 8.37712 25.6241 9.17147 25.625 10V13.125H4.375V10ZM4.375 14.375H25.625V22.5C25.6241 23.3285 25.2946 24.1229 24.7087 24.7087C24.1229 25.2946 23.3285 25.6241 22.5 25.625H7.5C6.6715 25.624 5.87721 25.2945 5.29137 24.7086C4.70552 24.1228 4.37597 23.3285 4.375 22.5V14.375Z" fill="#F9C623"/>
</g>
<defs>
<clipPath id="clip0_9618_125">
<rect width="30" height="30" fill="white"/>
</clipPath>
</defs>
</svg>
