<svg width="30" height="30" viewBox="0 0 30 30" fill="none" xmlns="http://www.w3.org/2000/svg">
<path d="M15 1.875C12.4041 1.875 9.86654 2.64477 7.70815 4.08696C5.54975 5.52915 3.86749 7.579 2.87409 9.97728C1.88069 12.3756 1.62077 15.0146 2.1272 17.5606C2.63363 20.1066 3.88367 22.4452 5.71923 24.2808C7.55479 26.1163 9.89344 27.3664 12.4394 27.8728C14.9854 28.3792 17.6244 28.1193 20.0227 27.1259C22.421 26.1325 24.4708 24.4503 25.913 22.2919C27.3552 20.1335 28.125 17.5959 28.125 15C28.1212 11.5202 26.7372 8.18401 24.2766 5.72342C21.816 3.26283 18.4798 1.8788 15 1.875ZM15 26.875C12.6514 26.875 10.3554 26.1785 8.40261 24.8737C6.44978 23.5689 4.92773 21.7142 4.02894 19.5444C3.13015 17.3745 2.89498 14.9868 3.35318 12.6833C3.81138 10.3798 4.94236 8.26385 6.60311 6.60311C8.26386 4.94236 10.3798 3.81137 12.6833 3.35317C14.9868 2.89498 17.3745 3.13014 19.5444 4.02893C21.7142 4.92772 23.5689 6.44977 24.8737 8.4026C26.1785 10.3554 26.875 12.6513 26.875 15C26.8714 18.1483 25.6192 21.1667 23.3929 23.3929C21.1667 25.6192 18.1484 26.8714 15 26.875ZM20.625 15C20.6251 15.0821 20.6089 15.1634 20.5775 15.2392C20.5461 15.3151 20.5001 15.384 20.4421 15.442C20.384 15.5001 20.3151 15.5461 20.2392 15.5775C20.1634 15.6089 20.0821 15.625 20 15.625H15C14.9179 15.625 14.8366 15.6089 14.7608 15.5775C14.6849 15.5461 14.616 15.5001 14.558 15.442C14.4999 15.384 14.4539 15.3151 14.4225 15.2392C14.3911 15.1634 14.375 15.0821 14.375 15V7.5C14.375 7.33424 14.4409 7.17527 14.5581 7.05806C14.6753 6.94085 14.8342 6.875 15 6.875C15.1658 6.875 15.3247 6.94085 15.4419 7.05806C15.5592 7.17527 15.625 7.33424 15.625 7.5V14.375H20C20.0821 14.375 20.1634 14.3911 20.2392 14.4225C20.3151 14.4539 20.384 14.4999 20.4421 14.558C20.5001 14.616 20.5461 14.6849 20.5775 14.7608C20.6089 14.8366 20.6251 14.9179 20.625 15Z" fill="#2F80ED"/>
</svg>
