<svg width="50" height="50" viewBox="0 0 50 50" fill="none" xmlns="http://www.w3.org/2000/svg">
<rect width="50" height="50" rx="5" fill="#A9A8B3"/>
<path d="M26.8486 22.9707V26.4424C26.8486 26.5303 26.7803 26.5986 26.6924 26.5986H26.1358C26.082 26.5986 26.0332 26.5693 26.0088 26.5352L24.417 24.3867V26.4473C24.417 26.5352 24.3486 26.6035 24.2608 26.6035H23.7041C23.6162 26.6035 23.5479 26.5352 23.5479 26.4473V22.9756C23.5479 22.8877 23.6162 22.8193 23.7041 22.8193H24.2559C24.3047 22.8193 24.3584 22.8438 24.3828 22.8877L25.9746 25.0361V22.9756C25.9746 22.8877 26.043 22.8193 26.1309 22.8193H26.6875C26.7754 22.8145 26.8486 22.8877 26.8486 22.9707ZM22.8447 22.8145H22.2881C22.2002 22.8145 22.1318 22.8828 22.1318 22.9707V26.4424C22.1318 26.5303 22.2002 26.5986 22.2881 26.5986H22.8447C22.9326 26.5986 23.001 26.5303 23.001 26.4424V22.9707C23.001 22.8877 22.9326 22.8145 22.8447 22.8145ZM21.502 25.7246H19.9834V22.9707C19.9834 22.8828 19.915 22.8145 19.8272 22.8145H19.2705C19.1826 22.8145 19.1143 22.8828 19.1143 22.9707V26.4424C19.1143 26.4863 19.1289 26.5205 19.1582 26.5498C19.1875 26.5742 19.2217 26.5938 19.2656 26.5938H21.4971C21.585 26.5938 21.6533 26.5254 21.6533 26.4375V25.8809C21.6533 25.7979 21.585 25.7246 21.502 25.7246ZM29.7783 22.8145H27.5469C27.4639 22.8145 27.3906 22.8828 27.3906 22.9707V26.4424C27.3906 26.5254 27.459 26.5986 27.5469 26.5986H29.7783C29.8662 26.5986 29.9346 26.5303 29.9346 26.4424V25.8858C29.9346 25.7979 29.8662 25.7295 29.7783 25.7295H28.2598V25.1436H29.7783C29.8662 25.1436 29.9346 25.0752 29.9346 24.9873V24.4258C29.9346 24.3379 29.8662 24.2695 29.7783 24.2695H28.2598V23.6836H29.7783C29.8662 23.6836 29.9346 23.6152 29.9346 23.5274V22.9707C29.9297 22.8877 29.8613 22.8145 29.7783 22.8145ZM35.4375 18.5518V32.4824C35.4326 34.6699 33.6406 36.4424 31.4483 36.4375H17.5176C15.3301 36.4326 13.5576 34.6358 13.5625 32.4483V18.5176C13.5674 16.3301 15.3643 14.5576 17.5518 14.5625H31.4824C33.6699 14.5674 35.4424 16.3594 35.4375 18.5518ZM32.4297 24.5381C32.4297 20.9736 28.8555 18.0733 24.4658 18.0733C20.0762 18.0733 16.502 20.9736 16.502 24.5381C16.502 27.7315 19.334 30.4072 23.1621 30.915C24.0947 31.1152 23.9873 31.457 23.7774 32.7119C23.7432 32.9121 23.6162 33.4981 24.4658 33.1416C25.3154 32.7852 29.0508 30.4414 30.7256 28.5176C31.8779 27.2481 32.4297 25.9639 32.4297 24.5381Z" fill="white"/>
</svg>
