<svg width="30" height="30" viewBox="0 0 30 30" fill="none" xmlns="http://www.w3.org/2000/svg">
<circle cx="15" cy="15" r="14.5" stroke="white"/>
<path d="M21.1667 8.77075H9.83333C9.36381 8.77119 8.91365 8.95789 8.58164 9.2899C8.24964 9.6219 8.06293 10.0721 8.0625 10.5416V20.4583C8.06293 20.9278 8.24964 21.3779 8.58164 21.7099C8.91365 22.0419 9.36381 22.2287 9.83333 22.2291H21.1667C21.6362 22.2287 22.0864 22.0419 22.4184 21.7099C22.7504 21.3779 22.9371 20.9278 22.9375 20.4583V10.5416C22.9371 10.0721 22.7504 9.6219 22.4184 9.2899C22.0864 8.95789 21.6362 8.77119 21.1667 8.77075ZM22.2292 20.4583C22.2289 20.74 22.1168 21.01 21.9176 21.2092C21.7184 21.4084 21.4484 21.5204 21.1667 21.5208H9.83333C9.55164 21.5204 9.28156 21.4084 9.08237 21.2092C8.88318 21.01 8.77114 20.74 8.77083 20.4583V13.292L14.589 16.7831C14.8641 16.9483 15.1791 17.0356 15.5 17.0356C15.8209 17.0356 16.1358 16.9483 16.411 16.7831L22.2292 13.292V20.4583ZM22.2292 12.466L16.0472 16.1757C15.8819 16.2749 15.6927 16.3272 15.5 16.3272C15.3073 16.3272 15.1181 16.2749 14.9528 16.1757L8.77083 12.466V10.5416C8.77114 10.2599 8.88318 9.98981 9.08237 9.79062C9.28156 9.59143 9.55164 9.47939 9.83333 9.47909H21.1667C21.4484 9.47939 21.7184 9.59143 21.9176 9.79062C22.1168 9.98981 22.2289 10.2599 22.2292 10.5416V12.466Z" fill="white"/>
</svg>
