<svg width="30" height="30" viewBox="0 0 30 30" fill="none" xmlns="http://www.w3.org/2000/svg">
<path d="M13.6646 27.5317L14.7205 28.0591C14.8073 28.1024 14.903 28.125 15 28.125C15.097 28.125 15.1927 28.1024 15.2795 28.0591L16.3355 27.5317C19.1334 26.1441 21.4867 24.0003 23.1286 21.3435C24.7705 18.6868 25.6353 15.6232 25.625 12.5C25.625 9.68207 24.5056 6.97956 22.513 4.98699C20.5204 2.99442 17.8179 1.875 15 1.875C12.1821 1.875 9.47957 2.99442 7.48699 4.98699C5.49442 6.97956 4.375 9.68207 4.375 12.5C4.36472 15.6232 5.22953 18.6868 6.87141 21.3435C8.51329 24.0003 10.8666 26.1441 13.6646 27.5317ZM15 3.125C17.4856 3.12771 19.8686 4.1163 21.6261 5.87387C23.3837 7.63144 24.3723 10.0144 24.375 12.5C24.3846 15.3909 23.5842 18.2267 22.0644 20.6858C20.5446 23.145 18.3663 25.1292 15.7764 26.4136L15 26.8018L14.2236 26.4136C11.6337 25.1292 9.45537 23.145 7.93558 20.6858C6.4158 18.2267 5.61536 15.3909 5.625 12.5C5.62771 10.0144 6.6163 7.63144 8.37387 5.87387C10.1314 4.1163 12.5144 3.12771 15 3.125ZM15 16.875C15.8653 16.875 16.7112 16.6184 17.4306 16.1377C18.1501 15.6569 18.7108 14.9737 19.042 14.1742C19.3731 13.3748 19.4597 12.4951 19.2909 11.6465C19.1221 10.7978 18.7054 10.0183 18.0936 9.40641C17.4817 8.79455 16.7022 8.37787 15.8535 8.20906C15.0049 8.04025 14.1252 8.12689 13.3258 8.45803C12.5263 8.78916 11.8431 9.34991 11.3623 10.0694C10.8816 10.7888 10.625 11.6347 10.625 12.5C10.6264 13.6599 11.0878 14.7719 11.908 15.592C12.7281 16.4122 13.8401 16.8736 15 16.875ZM15 9.375C15.6181 9.375 16.2223 9.55828 16.7362 9.90166C17.2501 10.245 17.6506 10.7331 17.8871 11.3041C18.1236 11.8751 18.1855 12.5035 18.065 13.1097C17.9444 13.7158 17.6467 14.2727 17.2097 14.7097C16.7727 15.1467 16.2158 15.4444 15.6097 15.565C15.0035 15.6855 14.3751 15.6236 13.8041 15.3871C13.2331 15.1506 12.745 14.7501 12.4017 14.2362C12.0583 13.7223 11.875 13.1181 11.875 12.5C11.8758 11.6714 12.2053 10.877 12.7911 10.2911C13.377 9.70525 14.1714 9.37576 15 9.375Z" fill="#F9C623"/>
</svg>
