<svg width="20" height="20" viewBox="0 0 20 20" fill="none" xmlns="http://www.w3.org/2000/svg">
<path d="M9.10972 18.3545L9.81366 18.7061C9.87153 18.735 9.93533 18.75 10 18.75C10.0647 18.75 10.1285 18.735 10.1864 18.7061L10.8903 18.3545C12.7556 17.4294 14.3245 16.0002 15.4191 14.229C16.5137 12.4578 17.0902 10.4154 17.0834 8.33333C17.0834 6.45472 16.3371 4.65304 15.0087 3.32466C13.6803 1.99628 11.8786 1.25 10 1.25C8.1214 1.25 6.31973 1.99628 4.99135 3.32466C3.66296 4.65304 2.91669 6.45472 2.91669 8.33333C2.90983 10.4154 3.48637 12.4578 4.58096 14.229C5.67555 16.0002 7.24441 17.4294 9.10972 18.3545ZM10 2.08333C11.6571 2.08514 13.2457 2.7442 14.4174 3.91591C15.5892 5.08762 16.2482 6.67629 16.25 8.33333C16.2564 10.2606 15.7228 12.1511 14.7096 13.7906C13.6964 15.43 12.2442 16.7528 10.5176 17.609L10 17.8678L9.48245 17.609C7.75582 16.7528 6.3036 15.43 5.29041 13.7906C4.27722 12.1511 3.74359 10.2606 3.75002 8.33333C3.75183 6.67629 4.41089 5.08762 5.5826 3.91591C6.75431 2.7442 8.34297 2.08514 10 2.08333ZM10 11.25C10.5769 11.25 11.1408 11.0789 11.6204 10.7585C12.1001 10.438 12.4739 9.98244 12.6947 9.44949C12.9154 8.91654 12.9732 8.3301 12.8606 7.76432C12.7481 7.19854 12.4703 6.67884 12.0624 6.27094C11.6545 5.86304 11.1348 5.58525 10.569 5.47271C10.0033 5.36017 9.41681 5.41793 8.88386 5.63868C8.35091 5.85944 7.89539 6.23328 7.5749 6.71292C7.25441 7.19256 7.08335 7.75647 7.08335 8.33333C7.08429 9.10659 7.39188 9.84792 7.93866 10.3947C8.48544 10.9415 9.22676 11.2491 10 11.25ZM10 6.25C10.4121 6.25 10.8149 6.37219 11.1575 6.60111C11.5001 6.83002 11.7671 7.1554 11.9248 7.53608C12.0825 7.91676 12.1237 8.33564 12.0433 8.73977C11.9629 9.1439 11.7645 9.51511 11.4732 9.80647C11.1818 10.0978 10.8106 10.2963 10.4065 10.3766C10.0023 10.457 9.58344 10.4158 9.20276 10.2581C8.82208 10.1004 8.49671 9.83337 8.26779 9.49077C8.03887 9.14817 7.91669 8.74538 7.91669 8.33333C7.9172 7.78096 8.13685 7.25135 8.52744 6.86076C8.91803 6.47017 9.44764 6.25051 10 6.25Z" fill="#333333"/>
</svg>
