<svg width="38" height="21" viewBox="0 0 38 21" fill="none" xmlns="http://www.w3.org/2000/svg">
<rect width="38" height="21" rx="10.5" fill="#F9525A"/>
<path d="M10.882 15V5.984H12.226L16.93 12.62V5.984H18.442V15H17.098L12.408 8.378V15H10.882ZM23.3979 15.14C22.2032 15.14 21.3259 14.8413 20.7659 14.244C20.2152 13.6467 19.9399 12.7927 19.9399 11.682C19.9399 10.5713 20.2199 9.71733 20.7799 9.12C21.3399 8.52267 22.2126 8.224 23.3979 8.224C24.5926 8.224 25.4699 8.52267 26.0299 9.12C26.5899 9.71733 26.8699 10.5713 26.8699 11.682C26.8699 12.7927 26.5899 13.6467 26.0299 14.244C25.4792 14.8413 24.6019 15.14 23.3979 15.14ZM23.3979 13.852C24.0979 13.852 24.5926 13.684 24.8819 13.348C25.1806 13.0027 25.3299 12.4473 25.3299 11.682C25.3299 10.9167 25.1806 10.366 24.8819 10.03C24.5926 9.694 24.0979 9.526 23.3979 9.526C22.7072 9.526 22.2126 9.694 21.9139 10.03C21.6246 10.366 21.4799 10.9167 21.4799 11.682C21.4799 12.4473 21.6246 13.0027 21.9139 13.348C22.2126 13.684 22.7072 13.852 23.3979 13.852Z" fill="white"/>
</svg>
