<svg width="30" height="30" viewBox="0 0 30 30" fill="none" xmlns="http://www.w3.org/2000/svg">
<circle cx="15" cy="15" r="14.5" stroke="white"/>
<path d="M18.5094 22.9393C19.1774 22.939 19.8442 22.8825 20.5027 22.7705C20.8901 22.7051 21.2525 22.5356 21.5511 22.2803C21.8497 22.0249 22.0733 21.6932 22.1981 21.3207L22.8733 19.3091C22.9259 19.153 22.9472 18.988 22.9359 18.8237C22.9246 18.6593 22.881 18.4988 22.8075 18.3513C22.734 18.2039 22.6321 18.0724 22.5076 17.9645C22.3832 17.8565 22.2386 17.7742 22.0823 17.7223L19.6449 16.9157C19.4263 16.842 19.1915 16.8305 18.9668 16.8826C18.742 16.9346 18.5361 17.0481 18.3722 17.2104L16.7293 18.7121C16.4201 18.7893 15.055 19.0137 13.5207 17.4795C11.9836 15.9421 12.2119 14.5752 12.288 14.2712L13.7787 12.6394C13.9444 12.4752 14.0609 12.2679 14.1149 12.041C14.1689 11.814 14.1584 11.5765 14.0844 11.3552L13.2779 8.91792C13.2259 8.76157 13.1436 8.61701 13.0357 8.49255C12.9277 8.3681 12.7963 8.2662 12.6488 8.1927C12.5014 8.1192 12.3409 8.07556 12.1765 8.06428C12.0121 8.05299 11.8472 8.07429 11.691 8.12695L9.67949 8.80208C9.30697 8.927 8.97533 9.15067 8.71993 9.44925C8.46454 9.74782 8.29495 10.1101 8.22927 10.4975C7.90744 12.1798 8.00105 13.9152 8.50197 15.5531C9.0029 17.191 9.896 18.6819 11.1038 19.8964C12.0699 20.8758 13.2237 21.6502 14.4963 22.1731C15.7688 22.696 17.1338 22.9566 18.5094 22.9393ZM8.92757 10.6165C8.97182 10.3554 9.08611 10.1112 9.25824 9.90992C9.43037 9.70867 9.6539 9.55792 9.90499 9.47373L11.9166 8.7986C11.9846 8.77537 12.0566 8.76591 12.1283 8.77078C12.2 8.77564 12.2701 8.79473 12.3344 8.82693C12.3981 8.85863 12.4549 8.90269 12.5014 8.95655C12.548 9.0104 12.5834 9.07298 12.6055 9.14063L13.4121 11.578C13.4443 11.6773 13.4478 11.7837 13.4221 11.885C13.3963 11.9862 13.3425 12.0781 13.2668 12.15L11.7097 13.8541C11.6775 13.8894 11.6528 13.9308 11.6371 13.9759C11.6091 14.0551 10.9803 15.9404 13.0199 17.9803C15.0598 20.0206 16.9447 19.3925 17.0243 19.3634C17.0694 19.3477 17.1108 19.323 17.146 19.2908L18.8615 17.7223C18.9333 17.65 19.0237 17.5991 19.1228 17.5754C19.2218 17.5517 19.3255 17.5561 19.4222 17.5881L21.8595 18.3946C21.9272 18.4168 21.9897 18.4522 22.0436 18.4987C22.0974 18.5453 22.1415 18.6021 22.1732 18.6658C22.2054 18.7301 22.2244 18.8001 22.2293 18.8719C22.2342 18.9436 22.2247 19.0156 22.2015 19.0836L21.5264 21.0952C21.4424 21.3463 21.2916 21.5699 21.0904 21.742C20.8891 21.9141 20.6448 22.0282 20.3837 22.0722C18.813 22.38 17.1908 22.2968 15.6599 21.8301C14.1289 21.3633 12.7363 20.5272 11.6045 19.3955C10.4728 18.2638 9.63668 16.8712 9.16987 15.3403C8.70305 13.8093 8.61985 12.1871 8.92757 10.6165Z" fill="white"/>
</svg>
