<svg width="30" height="30" viewBox="0 0 30 30" fill="none" xmlns="http://www.w3.org/2000/svg">
<mask id="mask0_9686_220" style="mask-type:alpha" maskUnits="userSpaceOnUse" x="0" y="0" width="30" height="30">
<rect width="30" height="30" fill="#D9D9D9"/>
</mask>
<g mask="url(#mask0_9686_220)">
<path d="M10.8654 17.8846H19.1346V17.6779C19.1346 16.9487 18.7684 16.3842 18.0361 15.9844C17.3037 15.5845 16.2917 15.3846 15 15.3846C13.7083 15.3846 12.6963 15.5845 11.9639 15.9844C11.2316 16.3842 10.8654 16.9487 10.8654 17.6779V17.8846ZM15 13.3654C15.5273 13.3654 15.9716 13.1847 16.3329 12.8233C16.6943 12.4619 16.875 12.0176 16.875 11.4904C16.875 10.9631 16.6943 10.5188 16.3329 10.1574C15.9716 9.79606 15.5273 9.61538 15 9.61538C14.4727 9.61538 14.0284 9.79606 13.6671 10.1574C13.3057 10.5188 13.125 10.9631 13.125 11.4904C13.125 12.0176 13.3057 12.4619 13.6671 12.8233C14.0284 13.1847 14.4727 13.3654 15 13.3654ZM11.25 25V22.5H5.76922C5.19391 22.5 4.71354 22.3073 4.32812 21.9219C3.94271 21.5365 3.75 21.0561 3.75 20.4808V7.01922C3.75 6.44391 3.94271 5.96354 4.32812 5.57812C4.71354 5.19271 5.19391 5 5.76922 5H24.2308C24.8061 5 25.2865 5.19271 25.6719 5.57812C26.0573 5.96354 26.25 6.44391 26.25 7.01922V20.4808C26.25 21.0561 26.0573 21.5365 25.6719 21.9219C25.2865 22.3073 24.8061 22.5 24.2308 22.5H18.75V25H11.25ZM5.76922 21.25H24.2308C24.4231 21.25 24.5994 21.1699 24.7596 21.0096C24.9199 20.8494 25 20.6731 25 20.4808V7.01922C25 6.82693 24.9199 6.65065 24.7596 6.49038C24.5994 6.33013 24.4231 6.25 24.2308 6.25H5.76922C5.57693 6.25 5.40065 6.33013 5.24037 6.49038C5.08012 6.65065 5 6.82693 5 7.01922V20.4808C5 20.6731 5.08012 20.8494 5.24037 21.0096C5.40065 21.1699 5.57693 21.25 5.76922 21.25Z" fill="#2F80ED"/>
</g>
</svg>
