<svg width="16" height="14" viewBox="0 0 16 14" fill="none" xmlns="http://www.w3.org/2000/svg">
<path d="M5.24358 8.923H10.7564V8.78517C10.7564 8.29906 10.5123 7.92272 10.024 7.65617C9.53579 7.38961 8.86111 7.25634 8 7.25634C7.13889 7.25634 6.46421 7.38961 5.97596 7.65617C5.48771 7.92272 5.24358 8.29906 5.24358 8.78517V8.923ZM8 5.91017C8.3515 5.91017 8.64771 5.78971 8.88863 5.54879C9.12954 5.30788 9.25 5.01167 9.25 4.66017C9.25 4.30868 9.12954 4.01247 8.88863 3.77154C8.64771 3.53063 8.3515 3.41017 8 3.41017C7.6485 3.41017 7.35229 3.53063 7.11138 3.77154C6.87046 4.01247 6.75 4.30868 6.75 4.66017C6.75 5.01167 6.87046 5.30788 7.11138 5.54879C7.35229 5.78971 7.6485 5.91017 8 5.91017ZM5.5 13.6666V11.9999H1.84615C1.4626 11.9999 1.14236 11.8714 0.885417 11.6145C0.628472 11.3576 0.5 11.0373 0.5 10.6538V1.6794C0.5 1.29586 0.628472 0.975613 0.885417 0.718669C1.14236 0.461724 1.4626 0.333252 1.84615 0.333252H14.1539C14.5374 0.333252 14.8576 0.461724 15.1146 0.718669C15.3715 0.975613 15.5 1.29586 15.5 1.6794V10.6538C15.5 11.0373 15.3715 11.3576 15.1146 11.6145C14.8576 11.8714 14.5374 11.9999 14.1539 11.9999H10.5V13.6666H5.5ZM1.84615 11.1666H14.1539C14.2821 11.1666 14.3996 11.1132 14.5064 11.0063C14.6132 10.8995 14.6667 10.782 14.6667 10.6538V1.6794C14.6667 1.5512 14.6132 1.43368 14.5064 1.32684C14.3996 1.22 14.2821 1.16659 14.1539 1.16659H1.84615C1.71795 1.16659 1.60043 1.22 1.49358 1.32684C1.38675 1.43368 1.33333 1.5512 1.33333 1.6794V10.6538C1.33333 10.782 1.38675 10.8995 1.49358 11.0063C1.60043 11.1132 1.71795 11.1666 1.84615 11.1666Z" fill="white"/>
</svg>
