<svg width="28" height="28" viewBox="0 0 28 28" fill="none" xmlns="http://www.w3.org/2000/svg">
<path d="M14 0.875C11.4041 0.875 8.86654 1.64477 6.70814 3.08696C4.54975 4.52915 2.86748 6.579 1.87408 8.97728C0.880681 11.3756 0.620762 14.0146 1.12719 16.5606C1.63362 19.1066 2.88366 21.4452 4.71922 23.2808C6.55479 25.1163 8.89344 26.3664 11.4394 26.8728C13.9854 27.3792 16.6244 27.1193 19.0227 26.1259C21.421 25.1325 23.4708 23.4503 24.913 21.2919C26.3552 19.1335 27.125 16.5959 27.125 14C27.1212 10.5202 25.7372 7.18401 23.2766 4.72342C20.816 2.26283 17.4798 0.878798 14 0.875ZM14 25.875C11.6513 25.875 9.35544 25.1785 7.4026 23.8737C5.44977 22.5689 3.92772 20.7142 3.02893 18.5444C2.13014 16.3745 1.89498 13.9868 2.35317 11.6833C2.81137 9.37978 3.94236 7.26385 5.60311 5.60311C7.26386 3.94236 9.37978 2.81137 11.6833 2.35317C13.9868 1.89498 16.3745 2.13014 18.5444 3.02893C20.7142 3.92772 22.5689 5.44977 23.8737 7.4026C25.1785 9.35544 25.875 11.6513 25.875 14C25.8714 17.1483 24.6192 20.1667 22.3929 22.3929C20.1667 24.6192 17.1483 25.8714 14 25.875ZM19.625 14C19.625 14.0821 19.6089 14.1634 19.5775 14.2392C19.5461 14.3151 19.5001 14.384 19.442 14.442C19.384 14.5001 19.3151 14.5461 19.2392 14.5775C19.1634 14.6089 19.0821 14.625 19 14.625H14C13.9179 14.625 13.8366 14.6089 13.7608 14.5775C13.6849 14.5461 13.616 14.5001 13.558 14.442C13.4999 14.384 13.4539 14.3151 13.4225 14.2392C13.3911 14.1634 13.375 14.0821 13.375 14V6.5C13.375 6.33424 13.4408 6.17527 13.5581 6.05806C13.6753 5.94085 13.8342 5.875 14 5.875C14.1658 5.875 14.3247 5.94085 14.4419 6.05806C14.5592 6.17527 14.625 6.33424 14.625 6.5V13.375H19C19.0821 13.375 19.1634 13.3911 19.2392 13.4225C19.3151 13.4539 19.384 13.4999 19.442 13.558C19.5001 13.616 19.5461 13.6849 19.5775 13.7608C19.6089 13.8366 19.625 13.9179 19.625 14Z" fill="#2F80ED"/>
</svg>
