<svg width="24" height="24" viewBox="0 0 24 24" fill="none" xmlns="http://www.w3.org/2000/svg">
<path d="M4.5 23.875H19.5C20.6599 23.8736 21.7719 23.4122 22.592 22.592C23.4122 21.7719 23.8736 20.6599 23.875 19.5V7C23.8736 5.84011 23.4122 4.72813 22.592 3.90796C21.7719 3.08779 20.6599 2.6264 19.5 2.625H17.625V0.75C17.625 0.58424 17.5592 0.425269 17.4419 0.308058C17.3247 0.190848 17.1658 0.125 17 0.125C16.8342 0.125 16.6753 0.190848 16.5581 0.308058C16.4408 0.425269 16.375 0.58424 16.375 0.75V2.625H7.625V0.75C7.625 0.58424 7.55915 0.425269 7.44194 0.308058C7.32473 0.190848 7.16576 0.125 7 0.125C6.83424 0.125 6.67527 0.190848 6.55806 0.308058C6.44085 0.425269 6.375 0.58424 6.375 0.75V2.625H4.5C3.34011 2.6264 2.22812 3.08779 1.40796 3.90796C0.587789 4.72813 0.126403 5.84011 0.125 7V19.5C0.126403 20.6599 0.587789 21.7719 1.40796 22.592C2.22812 23.4122 3.34011 23.8736 4.5 23.875ZM1.375 7C1.37597 6.1715 1.70552 5.37721 2.29137 4.79137C2.87721 4.20552 3.6715 3.87597 4.5 3.875H6.375V5.75C6.375 5.91576 6.44085 6.07473 6.55806 6.19194C6.67527 6.30915 6.83424 6.375 7 6.375C7.16576 6.375 7.32473 6.30915 7.44194 6.19194C7.55915 6.07473 7.625 5.91576 7.625 5.75V3.875H16.375V5.75C16.375 5.91576 16.4408 6.07473 16.5581 6.19194C16.6753 6.30915 16.8342 6.375 17 6.375C17.1658 6.375 17.3247 6.30915 17.4419 6.19194C17.5592 6.07473 17.625 5.91576 17.625 5.75V3.875H19.5C20.3285 3.87587 21.1229 4.20539 21.7087 4.79125C22.2946 5.37712 22.6241 6.17147 22.625 7V10.125H1.375V7ZM1.375 11.375H22.625V19.5C22.6241 20.3285 22.2946 21.1229 21.7087 21.7087C21.1229 22.2946 20.3285 22.6241 19.5 22.625H4.5C3.6715 22.624 2.87721 22.2945 2.29137 21.7086C1.70552 21.1228 1.37597 20.3285 1.375 19.5V11.375Z" fill="#2F80ED"/>
</svg>
