<svg width="45" height="21" viewBox="0 0 45 21" fill="none" xmlns="http://www.w3.org/2000/svg">
<rect width="45" height="21" rx="10.5" fill="#4AA888"/>
<path d="M13.836 15V11.654L10.602 5.984H12.184L14.592 10.366L17 5.984H18.582L15.348 11.654V15H13.836ZM19.7961 15V5.984H26.0821V7.174H21.3221V9.904H25.5641V11.08H21.3221V13.824H26.0821V15H19.7961ZM29.9499 15.14C28.7832 15.14 27.8452 14.9907 27.1359 14.692V13.348C27.5372 13.4973 27.9666 13.6187 28.4239 13.712C28.8906 13.8053 29.3526 13.852 29.8099 13.852C30.5286 13.852 31.0652 13.768 31.4199 13.6C31.7839 13.432 31.9659 13.096 31.9659 12.592C31.9659 12.284 31.8912 12.0367 31.7419 11.85C31.5926 11.6633 31.3452 11.5047 30.9999 11.374C30.6546 11.234 30.1786 11.0893 29.5719 10.94C28.6012 10.688 27.9199 10.3707 27.5279 9.988C27.1359 9.596 26.9399 9.05933 26.9399 8.378C26.9399 7.58467 27.2292 6.964 27.8079 6.516C28.3866 6.068 29.2499 5.844 30.3979 5.844C30.9206 5.844 31.4106 5.88133 31.8679 5.956C32.3346 6.03067 32.6986 6.11467 32.9599 6.208V7.552C32.2506 7.28133 31.4666 7.146 30.6079 7.146C29.9359 7.146 29.4132 7.23467 29.0399 7.412C28.6666 7.58933 28.4799 7.91133 28.4799 8.378C28.4799 8.64867 28.5452 8.868 28.6759 9.036C28.8066 9.204 29.0306 9.34867 29.3479 9.47C29.6746 9.59133 30.1226 9.72667 30.6919 9.876C31.4292 10.0627 31.9986 10.2867 32.3999 10.548C32.8106 10.8 33.0952 11.0987 33.2539 11.444C33.4219 11.78 33.5059 12.1627 33.5059 12.592C33.5059 13.3853 33.2119 14.0107 32.6239 14.468C32.0359 14.916 31.1446 15.14 29.9499 15.14Z" fill="white"/>
</svg>
