<svg width="30" height="29" viewBox="0 0 30 29" fill="none" xmlns="http://www.w3.org/2000/svg">
<path fill-rule="evenodd" clip-rule="evenodd" d="M15 0C6.71573 0 0 6.42323 0 14.3467C0 22.2701 6.71573 28.6934 15 28.6934C23.2843 28.6934 30 22.2701 30 14.3467C30 6.42323 23.2843 0 15 0ZM21.251 9.41432C21.9395 9.59501 22.4816 10.1274 22.6656 10.8035C23 12.0289 23 14.5856 23 14.5856C23 14.5856 23 17.1422 22.6656 18.3676C22.4816 19.0437 21.9395 19.5761 21.251 19.7569C20.0034 20.0852 15 20.0852 15 20.0852C15 20.0852 9.99664 20.0852 8.74891 19.7569C8.06045 19.5761 7.51827 19.0437 7.33427 18.3676C7 17.1422 7 14.5856 7 14.5856C7 14.5856 7 12.0289 7.33427 10.8035C7.51827 10.1274 8.06045 9.59501 8.74891 9.41432C9.99664 9.08594 15 9.08594 15 9.08594C15 9.08594 20.0034 9.08594 21.251 9.41432Z" fill="white"/>
<path fill-rule="evenodd" clip-rule="evenodd" d="M13.5 17.2158V12.4333L17.5 14.8247L13.5 17.2158Z" fill="white"/>
</svg>
